<?xml version="1.0" encoding="UTF-8"?>
<svg width="18px" height="13px" viewBox="0 0 18 13" version="1.1" xmlns="http://www.w3.org/2000/svg" xmlns:xlink="http://www.w3.org/1999/xlink">
    <title>Hide password</title>
    <defs>
        <polygon id="path-1" points="0 -7.10542736e-15 17.72 -7.10542736e-15 17.72 12.6303 0 12.6303"></polygon>
    </defs>
    <g id="Symbols" stroke="none" stroke-width="1" fill="none" fill-rule="evenodd">
        <g id="Hide-password" transform="translate(0.000000, -1.000000)">
            <g transform="translate(0.000000, 1.249700)">
                <g id="hide-password">
                    <mask id="mask-2" fill="white">
                        <use xlink:href="#path-1"></use>
                    </mask>
                    <g id="Clip-2"></g>
                    <path d="M17.024,8.284 C17.952,7.136 17.952,5.495 17.024,4.347 C15.114,1.722 12.104,0.119 8.86,-7.10542736e-15 C5.616,0.119 2.606,1.722 0.696,4.346 C-0.232,5.494 -0.232,7.135 0.696,8.283 C2.606,10.908 5.616,12.512 8.86,12.631 C12.104,12.512 15.114,10.909 17.024,8.284 M8.86,11.052 C11.623,10.93 14.177,9.548 15.788,7.301 C16.258,6.727 16.258,5.902 15.788,5.329 C14.176,3.082 11.623,1.7 8.86,1.579 C6.097,1.699 3.543,3.082 1.931,5.329 C1.461,5.902 1.461,6.727 1.931,7.301 C3.542,9.548 6.097,10.931 8.86,11.052" id="Fill-1" fill="#4B5156" mask="url(#mask-2)"></path>
                </g>
                <line x1="2.1348" y1="11.4999" x2="16.1348" y2="0.4999" id="Stroke-4" stroke="#4B5156" stroke-width="1.5" stroke-linecap="round"></line>
            </g>
        </g>
    </g>
</svg>