<?xml version="1.0" encoding="UTF-8"?>
<svg width="19px" height="13px" viewBox="0 0 19 13" version="1.1" xmlns="http://www.w3.org/2000/svg" xmlns:xlink="http://www.w3.org/1999/xlink">
    <title>Show Password</title>
    <g id="Show-Password" stroke="none" stroke-width="1" fill="none" fill-rule="evenodd">
        <g id="PREVIEW" transform="translate(0.409091, 0.318182)" fill="#4B5156">
            <path d="M9.09090909,0 C12.4197716,0.116650088 15.5080499,1.68545514 17.4677442,4.25532282 C18.4198428,5.37941519 18.4198428,6.98520009 17.4677442,8.10929245 C15.507837,10.6787903 12.4195922,12.2472175 9.09090909,12.3636364 C5.76204658,12.2469863 2.67376826,10.6781812 0.714073979,8.10831354 C-0.23802466,6.98422118 -0.23802466,5.37843628 0.714073979,4.25434391 C2.67398113,1.68484604 5.76222601,0.116418871 9.09090909,0 Z M9.09090909,1.54569927 C6.25599556,1.66315137 3.63477553,3.01656357 1.98127037,5.21661268 C1.49867472,5.77735611 1.49867472,6.58530134 1.98127037,7.14604477 C3.63456142,9.34646412 6.25581523,10.7002547 9.09090909,10.8179371 C11.925595,10.6998145 14.5463461,9.34608822 16.1995217,7.14604477 C16.6821174,6.58530134 16.6821174,5.77735611 16.1995217,5.21661268 C14.546132,3.01693947 11.9254147,1.66359151 9.09090909,1.54569927 Z M9.08986763,3.63636385 C9.76514457,3.63608776 10.4128585,3.90414682 10.8904491,4.38154208 C11.3680397,4.85893734 11.6363636,5.50654153 11.6363636,6.18181851 C11.6363636,7.58749858 10.4969363,8.72708109 9.09125617,8.72727273 C7.68557609,8.72746437 6.54583814,7.58819259 6.54545464,6.18251257 C6.54507134,4.77683255 7.68418765,3.63693922 9.08986763,3.63636385 Z M9.08986763,4.91013237 L9.03570902,4.91013237 C9.15736318,5.25662716 9.06957612,5.64218497 8.8099051,5.90185599 C8.55023408,6.161527 8.16467625,6.24931407 7.81818189,6.12765991 L7.81818189,6.12765991 L7.81818189,6.18181851 C7.81818189,6.63652017 8.06076232,7.05668182 8.45454551,7.28403265 C8.84832869,7.51138348 9.33348959,7.51138348 9.72727278,7.28403265 C10.121056,7.05668182 10.3636364,6.63652017 10.3636364,6.18181851 C10.3633603,5.84427023 10.2290049,5.52065675 9.99012687,5.28216939 C9.75124887,5.04368203 9.42741592,4.90985646 9.08986763,4.91013237 L9.08986763,4.91013237 Z" id="Combined-Shape"></path>
        </g>
    </g>
</svg>