<?xml version="1.0" standalone="no"?>
<!DOCTYPE svg PUBLIC "-//W3C//DTD SVG 20010904//EN"
 "http://www.w3.org/TR/2001/REC-SVG-20010904/DTD/svg10.dtd">
<svg version="1.0" xmlns="http://www.w3.org/2000/svg"
 width="577.000000pt" height="577.000000pt" viewBox="0 0 577.000000 577.000000"
 preserveAspectRatio="xMidYMid meet">
<metadata>
Created by potrace 1.11, written by Peter Selinger 2001-2013
</metadata>
<g transform="translate(0.000000,577.000000) scale(0.100000,-0.100000)"
fill="#000000" stroke="none">
<path d="M2637 5760 c-559 -54 -1047 -242 -1497 -578 -152 -114 -438 -400
-552 -552 -306 -410 -481 -831 -559 -1340 -18 -118 -22 -190 -23 -390 -1 -258
8 -353 50 -573 110 -570 392 -1089 816 -1503 466 -455 1029 -724 1688 -806 58
-7 204 -13 325 -13 121 0 267 6 325 13 533 66 991 250 1420 570 152 114 438
400 552 552 305 409 483 837 560 1340 29 194 32 591 5 775 -78 531 -253 956
-565 1375 -114 152 -400 438 -552 552 -409 305 -835 483 -1335 558 -158 24
-510 34 -658 20z m407 -80 c170 -11 308 -29 445 -59 1070 -234 1922 -1098
2140 -2171 56 -277 71 -642 36 -905 -102 -776 -484 -1435 -1102 -1901 -986
-744 -2362 -746 -3348 -6 -950 713 -1347 1905 -1015 3047 260 895 1002 1633
1900 1889 247 71 433 99 755 114 17 1 101 -3 189 -8z"/>
<path d="M2647 5539 c-216 -19 -445 -68 -652 -139 -128 -44 -435 -187 -435
-203 0 -5 24 -48 53 -95 29 -48 57 -92 60 -99 4 -6 4 -14 -1 -17 -4 -2 -36 42
-71 100 -73 120 -50 118 -206 14 -143 -96 -243 -178 -374 -304 -161 -157 -325
-362 -415 -517 l-26 -47 105 -62 c58 -34 103 -66 100 -71 -3 -4 -50 19 -104
51 -54 33 -104 60 -109 60 -16 0 -143 -264 -191 -396 -96 -264 -161 -610 -161
-856 l0 -67 123 -4 122 -3 -122 -2 -123 -2 0 -64 c0 -223 60 -549 150 -811 46
-135 187 -435 204 -435 6 0 54 25 106 54 52 30 98 52 103 49 9 -6 -10 -18
-125 -82 -91 -49 -92 -30 14 -188 218 -326 536 -625 872 -821 365 -214 779
-337 1203 -358 l132 -7 4 124 3 124 2 -124 2 -124 129 6 c292 14 588 78 864
188 135 54 317 147 317 162 0 6 -25 55 -54 107 -30 52 -52 98 -49 103 6 9 18
-10 82 -126 23 -42 46 -77 50 -77 4 0 54 31 112 68 301 198 551 442 748 732
117 173 118 148 -4 220 -58 34 -103 66 -100 71 3 4 50 -19 104 -51 54 -33 103
-60 108 -60 16 0 160 308 203 435 90 264 150 594 150 827 l0 57 -122 4 -123 3
123 2 122 2 0 48 c0 218 -59 550 -140 791 -59 174 -200 481 -222 481 -5 0 -49
-27 -100 -59 -51 -33 -96 -57 -101 -54 -5 3 33 33 86 67 53 34 98 64 102 67 8
9 -135 221 -221 329 -88 109 -285 306 -394 394 -111 89 -319 228 -334 223 -6
-2 -31 -39 -56 -83 -66 -116 -67 -117 -72 -108 -3 5 19 52 48 104 30 52 54 98
54 102 0 24 -295 160 -480 221 -239 79 -491 125 -710 130 l-115 2 -5 -120 -6
-120 -2 123 -2 122 -72 -1 c-40 -1 -112 -5 -161 -10z m444 -509 c419 -43 829
-211 1154 -473 237 -191 442 -453 576 -732 240 -502 274 -1086 94 -1615 -211
-619 -683 -1112 -1279 -1335 -637 -237 -1383 -154 -1938 218 -129 87 -193 139
-312 255 -335 328 -549 748 -623 1224 -24 158 -25 493 0 639 61 366 202 698
420 989 82 110 250 286 354 372 305 249 704 415 1104 457 121 12 330 13 450 1z
m-1436 -4293 c-14 -23 -40 -68 -58 -99 -30 -54 -47 -71 -47 -49 0 18 114 200
122 195 5 -3 -3 -24 -17 -47z"/>
<path d="M4090 3933 c-59 -34 -81 -53 -78 -68 2 -9 -1011 -898 -1155 -1014
-15 -12 -72 18 -478 244 l-460 258 -86 -18 c-53 -11 -87 -23 -90 -33 -4 -8 -1
-47 5 -85 9 -60 15 -75 38 -92 16 -11 235 -161 489 -334 253 -173 462 -318
465 -323 4 -4 54 -21 112 -38 l106 -30 65 67 c35 38 302 325 591 638 290 314
530 571 534 572 4 2 18 -13 32 -33 l24 -37 43 49 c82 92 96 194 37 268 -28 34
-32 36 -89 36 -47 0 -70 -6 -105 -27z"/>
</g>
</svg>
