<?xml version="1.0" encoding="utf-8"?>
<!-- Generator: Adobe Illustrator 25.4.1, SVG Export Plug-In . SVG Version: 6.00 Build 0)  -->
<svg version="1.1" id="Layer_1" xmlns="http://www.w3.org/2000/svg" xmlns:xlink="http://www.w3.org/1999/xlink" x="0px" y="0px"
	 viewBox="0 0 20.92 24" style="enable-background:new 0 0 20.92 24;" xml:space="preserve">
<path d="M19.71,5.62c-2.46-0.53-4.29-2.59-4.52-5.09V0h-4.13v16.4c-0.01,1.92-1.57,3.47-3.49,3.46c-1.08,0-2.1-0.51-2.75-1.37l0,0
	l0,0c-1.16-1.53-0.86-3.71,0.66-4.87c0.9-0.68,2.08-0.89,3.15-0.54v-4.2c-4.15-0.57-7.99,2.33-8.56,6.48
	c-0.32,2.32,0.45,4.67,2.09,6.35c2.93,3,7.74,3.05,10.74,0.12c1.46-1.43,2.29-3.39,2.29-5.43V8.02c1.67,1.19,3.67,1.83,5.73,1.83
	V5.75C20.51,5.75,20.11,5.71,19.71,5.62z"/>
</svg>
