<?xml version="1.0" encoding="utf-8"?>
<!-- Generator: Adobe Illustrator 25.4.1, SVG Export Plug-In . SVG Version: 6.00 Build 0)  -->
<svg version="1.1" id="Layer_1" xmlns="http://www.w3.org/2000/svg" xmlns:xlink="http://www.w3.org/1999/xlink" x="0px" y="0px"
	 viewBox="0 0 24 24" style="enable-background:new 0 0 24 24;" xml:space="preserve">
<style type="text/css">
	.st0{fill:none;}
	.st1{fill:#BFC5CE;}
</style>
<rect y="0" class="st0" width="24" height="24"/>
<g>
	<path class="st1" d="M12,5.84C8.6,5.84,5.85,8.6,5.85,12c0,3.4,2.76,6.16,6.16,6.16c3.4,0,6.16-2.76,6.16-6.16
		C18.16,8.59,15.4,5.84,12,5.84z M12,15.99c-2.21,0-4-1.79-4-4s1.79-4,4-4c2.21,0,4,1.79,4,4C16,14.2,14.21,15.99,12,15.99z"/>
	<path class="st1" d="M16.95,0.08c-2.21-0.1-7.68-0.1-9.89,0C5.12,0.17,3.41,0.64,2.03,2.02C-0.28,4.32,0.01,7.43,0.01,12
		c0,4.67-0.26,7.71,2.01,9.98c2.32,2.32,5.47,2.01,9.98,2.01c4.62,0,6.22,0,7.86-0.63c2.22-0.86,3.9-2.85,4.06-6.42
		c0.1-2.21,0.1-7.68,0-9.89C23.73,2.84,21.47,0.28,16.95,0.08z M20.44,20.45c-1.51,1.51-3.61,1.38-8.47,1.38c-5,0-7,0.07-8.47-1.39
		c-1.69-1.68-1.38-4.37-1.38-8.45c0-5.53-0.57-9.5,4.98-9.79c1.27-0.05,1.65-0.06,4.86-0.06l0.05,0.03c5.33,0,9.51-0.56,9.76,4.99
		c0.06,1.27,0.07,1.64,0.07,4.85C21.84,16.94,21.93,18.95,20.44,20.45z"/>
	<path class="st1" d="M18.41,7.03c0.79,0,1.44-0.64,1.44-1.44s-0.64-1.44-1.44-1.44c-0.79,0-1.44,0.64-1.44,1.44
		S17.61,7.03,18.41,7.03z"/>
</g>
</svg>
