<?xml version="1.0" encoding="utf-8"?>
<!-- Generator: Adobe Illustrator 25.4.1, SVG Export Plug-In . SVG Version: 6.00 Build 0)  -->
<svg version="1.1" id="Layer_1" xmlns="http://www.w3.org/2000/svg" xmlns:xlink="http://www.w3.org/1999/xlink" x="0px" y="0px"
	 viewBox="0 0 24 24" style="enable-background:new 0 0 24 24;" xml:space="preserve">
<style type="text/css">
	.st0{fill:none;}
	.st1{fill:#BFC5CE;}
</style>
<rect y="0" class="st0" width="24" height="24"/>
<g>
	<path class="st1" d="M23.99,24L23.99,24L23.99,24L24,15.2c0-4.31-0.93-7.62-5.96-7.62c-2.42,0-4.04,1.33-4.71,2.59h-0.07V7.98H8.49
		V24h4.97v-7.93c0-2.09,0.4-4.11,2.98-4.11c2.55,0,2.59,2.38,2.59,4.24V24H23.99z"/>
	<path class="st1" d="M0.4,7.98h4.98V24H0.4V7.98z"/>
	<path class="st1" d="M2.88,0C1.29,0,0,1.29,0,2.88c0,1.59,1.29,2.91,2.88,2.91c1.59,0,2.88-1.32,2.88-2.91C5.76,1.29,4.47,0,2.88,0
		L2.88,0z"/>
</g>
</svg>
