<?xml version="1.0" encoding="utf-8"?>
<!-- Generator: Adobe Illustrator 25.4.1, SVG Export Plug-In . SVG Version: 6.00 Build 0)  -->
<svg version="1.1" id="Layer_1" xmlns="http://www.w3.org/2000/svg" xmlns:xlink="http://www.w3.org/1999/xlink" x="0px" y="0px"
	 viewBox="0 0 24 24" style="enable-background:new 0 0 24 24;" xml:space="preserve">
<style type="text/css">
	.st0{fill:#BFC5CE;}
</style>
<path class="st0" d="M21.25,5.62c-2.46-0.53-4.29-2.59-4.52-5.09V0H12.6v16.4c-0.01,1.92-1.57,3.47-3.49,3.46
	c-1.08,0-2.1-0.51-2.75-1.37l0,0l0,0c-1.16-1.53-0.86-3.71,0.66-4.87c0.9-0.68,2.08-0.89,3.15-0.54v-4.2
	c-4.15-0.57-7.99,2.33-8.56,6.48c-0.32,2.32,0.45,4.67,2.09,6.35c2.93,3,7.74,3.05,10.74,0.12c1.46-1.43,2.29-3.39,2.29-5.43V8.02
	c1.67,1.19,3.67,1.83,5.73,1.83v-4.1C22.05,5.75,21.65,5.71,21.25,5.62z"/>
</svg>
